<?xml version="1.0" encoding="utf-8"?>
<!-- Generator: Adobe Illustrator 19.2.1, SVG Export Plug-In . SVG Version: 6.00 Build 0)  -->
<svg version="1.1" xmlns="http://www.w3.org/2000/svg" xmlns:xlink="http://www.w3.org/1999/xlink" x="0px" y="0px"
	 viewBox="0 0 1280 861" style="enable-background:new 0 0 1280 861;" xml:space="preserve">
<style type="text/css">
	.st0{fill:#FEFEFE;}
	.st1{clip-path:url(#SVGID_2_);}
	.st2{fill:#FFCC71;}
	.st3{fill:none;}
	.st4{font-family:'Edison-Bold';}
	.st5{font-size:38px;}
	.st6{letter-spacing:1;}
	.st7{font-size:33px;}
</style>
<g id="Layer_1">
	<g>
		
			<image style="overflow:visible;opacity:1.000000e-02;" width="592" height="113" xlink:href="3D58FCC6E25C543D.png"  transform="matrix(1 0 0 1 46 373)">
		</image>
		<g>
			<g>
				<path class="st0" d="M58.8,400.7L58.8,400.7c-0.4,0-0.6-0.3-0.6-0.6v-15.6c0-0.3,0.3-0.6,0.6-0.6c0.3,0,0.6,0.3,0.6,0.6v15h8
					c0.3,0,0.6,0.3,0.6,0.6c0,0.3-0.3,0.6-0.6,0.6H58.8z"/>
				<path class="st0" d="M76.7,389c3.1,0,5.6,2.7,5.6,5.9c0,3.2-2.5,5.9-5.6,5.9c-3.1,0-5.6-2.7-5.6-5.9
					C71.1,391.7,73.6,389,76.7,389z M76.7,399.6c2.4,0,4.4-2.1,4.4-4.7s-2-4.8-4.4-4.8c-2.4,0-4.4,2.1-4.4,4.8
					S74.3,399.6,76.7,399.6z"/>
				<path class="st0" d="M86.6,389.6c0-0.3,0.3-0.6,0.6-0.6c0.3,0,0.6,0.2,0.6,0.6v2.6c0-0.1,0.1-0.2,0.2-0.3
					c0.9-1.4,2.4-2.9,4.7-2.9c0.3,0,0.6,0.2,0.6,0.6c0,0.3-0.3,0.6-0.6,0.6c-1.5,0-2.6,0.9-3.4,1.9c-0.8,1.1-1.2,2.3-1.4,2.7
					c0,0.1,0,0.1,0,0.2v5.2c0,0.3-0.3,0.6-0.6,0.6c-0.3,0-0.6-0.2-0.6-0.6V389.6z"/>
				<path class="st0" d="M95.6,394.9c0-3.3,2.5-5.9,5.7-5.9c3,0,5.4,2.4,5.7,5.5v0v0.1c0,0.3-0.3,0.5-0.6,0.5h-9.6
					c0.1,2.6,2.1,4.5,4.6,4.5c1.6,0,3-0.8,3.8-2.1c0.2-0.3,0.5-0.3,0.8-0.2c0.3,0.2,0.4,0.5,0.2,0.8c-1,1.6-2.8,2.7-4.8,2.7
					C98.2,400.7,95.6,398.1,95.6,394.9z M96.8,394h8.9c-0.4-2.2-2.3-3.8-4.4-3.8C99.1,390.1,97.3,391.7,96.8,394z"/>
				<path class="st0" d="M128.4,393.8c0-2-1.6-3.6-3.6-3.6c-2,0-3.6,1.7-3.6,3.6v6.4v0.1c0,0,0,0,0,0v0c0,0.1-0.2,0.2-0.3,0.3
					c-0.1,0-0.2,0.1-0.3,0.1h-0.1h0c0,0,0,0,0,0c0,0-0.1,0-0.1-0.1c0,0,0,0-0.1,0l-0.1-0.1c0,0,0,0,0,0c0,0,0,0,0,0c0,0,0,0,0,0
					c0,0,0,0,0-0.1v-0.1v0v-6.4c0-2-1.6-3.6-3.6-3.6c-2,0-3.6,1.7-3.6,3.6v6.4c0,0.2-0.1,0.4-0.3,0.5c0,0-0.1,0.1-0.1,0.1
					c0,0,0,0-0.1,0h-0.1H112c-0.2,0-0.4-0.2-0.5-0.4v-0.1v-6.4v-0.2v-4c0-0.3,0.3-0.6,0.6-0.6c0.3,0,0.6,0.2,0.6,0.6v1.1
					c0.9-1,2.2-1.7,3.6-1.7c1.8,0,3.4,1,4.2,2.5c0.8-1.5,2.4-2.5,4.2-2.5c2.6,0,4.8,2.1,4.8,4.8v6.4c0,0.3-0.2,0.6-0.6,0.6
					c-0.3,0-0.6-0.3-0.6-0.6V393.8z"/>
				<path class="st0" d="M142.6,385.7c0-0.3,0.3-0.6,0.6-0.6c0.3,0,0.6,0.3,0.6,0.6v0.6c0,0.3-0.3,0.6-0.6,0.6
					c-0.3,0-0.6-0.3-0.6-0.6V385.7z M142.6,389.6c0-0.3,0.3-0.6,0.6-0.6c0.3,0,0.6,0.2,0.6,0.6v10.6c0,0.3-0.3,0.6-0.6,0.6
					c-0.3,0-0.6-0.3-0.6-0.6V389.6z"/>
				<path class="st0" d="M149.8,395.1v-0.2v-0.2v-5c0-0.3,0.3-0.6,0.6-0.6c0.3,0,0.6,0.3,0.6,0.6v1.7c1-1.4,2.6-2.3,4.5-2.3
					c3.2,0,5.7,2.6,5.7,5.8c0,3.2-2.5,5.9-5.7,5.9c-1.8,0-3.5-0.9-4.5-2.3v6.7c0,0.3-0.3,0.6-0.6,0.6c-0.3,0-0.6-0.3-0.6-0.6V395.1z
					 M150.9,394.8c0,2.6,2,4.7,4.5,4.7c2.5,0,4.5-2.1,4.5-4.7c0-2.6-2-4.7-4.5-4.7c-2.4,0-4.4,2-4.5,4.5V394.8z"/>
				<path class="st0" d="M165.3,398.3c0.2-0.2,0.6-0.3,0.8-0.1c0.8,0.6,2.1,1.4,3.6,1.4c0.9,0,1.7-0.3,2.2-0.7
					c0.6-0.4,0.9-0.9,0.9-1.4c0-0.6-0.2-0.9-0.8-1.4c-0.5-0.4-1.3-0.7-2.5-0.9l0,0c-1.1-0.2-2-0.4-2.7-0.9c-0.7-0.4-1.3-1.2-1.3-2.1
					c0-0.9,0.5-1.8,1.3-2.3c0.7-0.5,1.7-0.8,2.9-0.8c1.5,0,2.6,0.7,3.5,1.3c0.3,0.2,0.3,0.6,0.2,0.8c-0.2,0.3-0.5,0.3-0.8,0.2
					c-0.9-0.6-1.7-1.2-2.9-1.2c-1,0-1.7,0.3-2.2,0.7c-0.5,0.4-0.7,0.9-0.7,1.3c0,0.5,0.2,0.8,0.7,1.2c0.5,0.4,1.3,0.6,2.4,0.8h0
					c1.1,0.2,2,0.5,2.9,1c0.8,0.5,1.3,1.4,1.3,2.4c0,1-0.6,1.8-1.3,2.4c-0.8,0.6-1.8,0.9-2.9,0.9c-1.9,0-3.4-0.9-4.3-1.7
					C165.1,398.9,165.1,398.5,165.3,398.3z"/>
				<path class="st0" d="M178.1,389.5c0-0.3,0.3-0.6,0.6-0.6s0.6,0.2,0.6,0.6v6.4c0,2,1.6,3.6,3.6,3.6c2,0,3.6-1.6,3.6-3.6v-6.4
					c0-0.3,0.3-0.6,0.6-0.6c0.3,0,0.6,0.2,0.6,0.6v6.4c0,2.6-2.1,4.8-4.8,4.8c-2.6,0-4.8-2.2-4.8-4.8V389.5z"/>
				<path class="st0" d="M210.4,393.8c0-2-1.6-3.6-3.6-3.6c-2,0-3.6,1.7-3.6,3.6v6.4v0.1c0,0,0,0,0,0v0c0,0.1-0.2,0.2-0.3,0.3
					c-0.1,0-0.2,0.1-0.3,0.1h-0.1h0c0,0,0,0,0,0c0,0-0.1,0-0.1-0.1c0,0,0,0-0.1,0l-0.1-0.1c0,0,0,0,0,0c0,0,0,0,0,0c0,0,0,0,0,0
					c0,0,0,0,0-0.1v-0.1v0v-6.4c0-2-1.6-3.6-3.6-3.6c-2,0-3.6,1.7-3.6,3.6v6.4c0,0.2-0.1,0.4-0.3,0.5c0,0-0.1,0.1-0.1,0.1
					c0,0,0,0-0.1,0h-0.1H194c-0.2,0-0.4-0.2-0.5-0.4v-0.1v-6.4v-0.2v-4c0-0.3,0.3-0.6,0.6-0.6c0.3,0,0.6,0.2,0.6,0.6v1.1
					c0.9-1,2.2-1.7,3.6-1.7c1.8,0,3.4,1,4.2,2.5c0.8-1.5,2.4-2.5,4.2-2.5c2.6,0,4.8,2.1,4.8,4.8v6.4c0,0.3-0.2,0.6-0.6,0.6
					c-0.3,0-0.6-0.3-0.6-0.6V393.8z"/>
				<path class="st0" d="M234,398.5c-1,1.4-2.7,2.3-4.5,2.3c-3.2,0-5.7-2.6-5.7-5.9c0-3.3,2.5-5.9,5.7-5.9c1.8,0,3.5,0.9,4.5,2.3
					v-6.8c0-0.3,0.3-0.6,0.6-0.6c0.3,0,0.6,0.3,0.6,0.6v10.1v0.2v5.3c0,0.3-0.3,0.6-0.6,0.6c-0.3,0-0.6-0.3-0.6-0.6V398.5z
					 M234,395.1v-0.4c-0.1-2.5-2.1-4.5-4.5-4.5c-2.5,0-4.5,2.1-4.5,4.7c0,2.6,2,4.7,4.5,4.7C231.9,399.6,233.9,397.6,234,395.1z"/>
				<path class="st0" d="M245.9,389c3.1,0,5.6,2.7,5.6,5.9c0,3.2-2.5,5.9-5.6,5.9c-3.1,0-5.6-2.7-5.6-5.9
					C240.3,391.7,242.8,389,245.9,389z M245.9,399.6c2.4,0,4.4-2.1,4.4-4.7s-2-4.8-4.4-4.8c-2.4,0-4.4,2.1-4.4,4.8
					S243.5,399.6,245.9,399.6z"/>
				<path class="st0" d="M256.5,384.5c0-0.3,0.3-0.6,0.6-0.6c0.3,0,0.6,0.3,0.6,0.6v15.6c0,0.3-0.3,0.6-0.6,0.6
					c-0.3,0-0.6-0.3-0.6-0.6V384.5z"/>
				<path class="st0" d="M267.8,389c3.1,0,5.6,2.7,5.6,5.9c0,3.2-2.5,5.9-5.6,5.9c-3.1,0-5.6-2.7-5.6-5.9
					C262.3,391.7,264.7,389,267.8,389z M267.8,399.6c2.4,0,4.4-2.1,4.4-4.7s-2-4.8-4.4-4.8c-2.4,0-4.4,2.1-4.4,4.8
					S265.4,399.6,267.8,399.6z"/>
				<path class="st0" d="M277.8,389.6c0-0.3,0.3-0.6,0.6-0.6c0.3,0,0.6,0.2,0.6,0.6v2.6c0-0.1,0.1-0.2,0.2-0.3
					c0.9-1.4,2.4-2.9,4.7-2.9c0.3,0,0.6,0.2,0.6,0.6c0,0.3-0.3,0.6-0.6,0.6c-1.5,0-2.6,0.9-3.4,1.9c-0.8,1.1-1.2,2.3-1.4,2.7
					c0,0.1,0,0.1,0,0.2v5.2c0,0.3-0.3,0.6-0.6,0.6c-0.3,0-0.6-0.2-0.6-0.6V389.6z"/>
				<path class="st0" d="M295.7,398.3c0.2-0.2,0.6-0.3,0.8-0.1c0.8,0.6,2.1,1.4,3.6,1.4c0.9,0,1.7-0.3,2.2-0.7
					c0.6-0.4,0.9-0.9,0.9-1.4c0-0.6-0.2-0.9-0.8-1.4c-0.5-0.4-1.3-0.7-2.5-0.9l0,0c-1.1-0.2-2-0.4-2.7-0.9c-0.7-0.4-1.3-1.2-1.3-2.1
					c0-0.9,0.5-1.8,1.3-2.3c0.7-0.5,1.7-0.8,2.9-0.8c1.5,0,2.6,0.7,3.5,1.3c0.3,0.2,0.3,0.6,0.2,0.8c-0.2,0.3-0.5,0.3-0.8,0.2
					c-0.9-0.6-1.7-1.2-2.9-1.2c-1,0-1.7,0.3-2.2,0.7c-0.5,0.4-0.7,0.9-0.7,1.3c0,0.5,0.2,0.8,0.7,1.2c0.5,0.4,1.3,0.6,2.4,0.8h0
					c1.1,0.2,2,0.5,2.9,1c0.8,0.5,1.3,1.4,1.3,2.4c0,1-0.6,1.8-1.3,2.4c-0.8,0.6-1.8,0.9-2.9,0.9c-1.9,0-3.4-0.9-4.3-1.7
					C295.5,398.9,295.5,398.5,295.7,398.3z"/>
				<path class="st0" d="M308.8,385.7c0-0.3,0.3-0.6,0.6-0.6c0.3,0,0.6,0.3,0.6,0.6v0.6c0,0.3-0.3,0.6-0.6,0.6
					c-0.3,0-0.6-0.3-0.6-0.6V385.7z M308.8,389.6c0-0.3,0.3-0.6,0.6-0.6c0.3,0,0.6,0.2,0.6,0.6v10.6c0,0.3-0.3,0.6-0.6,0.6
					c-0.3,0-0.6-0.3-0.6-0.6V389.6z"/>
				<path class="st0" d="M320.1,389.6c0,0.3-0.3,0.6-0.6,0.6H318v8.6c0,0.6,0.6,0.9,0.9,0.9s0.6,0.3,0.6,0.6s-0.3,0.6-0.6,0.6
					c-1.2,0-2.1-0.9-2.1-2v-8.6h-1.5c-0.6,0-0.6-0.3-0.6-0.6s0-0.6,0.6-0.6h1.5v-4.4c0-0.3,0.3-0.6,0.6-0.6c0.3,0,0.6,0.3,0.6,0.6
					v4.4h1.5C319.8,389,320.1,389.3,320.1,389.6z"/>
				<path class="st0" d="M343.6,389.6v10.6c0,0.3-0.3,0.6-0.6,0.6s-0.6-0.3-0.6-0.6v-1.8c-1,1.4-2.6,2.3-4.4,2.3
					c-3.1,0-5.6-2.7-5.6-5.9s2.5-5.9,5.6-5.9c1.8,0,3.4,0.9,4.4,2.3v-1.7c0-0.3,0.3-0.6,0.6-0.6S343.6,389.2,343.6,389.6z
					 M342.5,394.9c0-2.6-2-4.8-4.4-4.8c-2.4,0-4.4,2.1-4.4,4.8s2,4.7,4.4,4.7C340.5,399.6,342.5,397.5,342.5,394.9z"/>
				<path class="st0" d="M365.9,393.8c0-2-1.6-3.6-3.6-3.6c-2,0-3.6,1.7-3.6,3.6v6.4v0.1c0,0,0,0,0,0v0c0,0.1-0.2,0.2-0.3,0.3
					c-0.1,0-0.2,0.1-0.3,0.1H358h0c0,0,0,0,0,0c0,0-0.1,0-0.1-0.1c0,0,0,0-0.1,0l-0.1-0.1c0,0,0,0,0,0c0,0,0,0,0,0c0,0,0,0,0,0
					c0,0,0,0,0-0.1v-0.1v0v-6.4c0-2-1.6-3.6-3.6-3.6c-2,0-3.6,1.7-3.6,3.6v6.4c0,0.2-0.1,0.4-0.3,0.5c0,0-0.1,0.1-0.1,0.1
					c0,0,0,0-0.1,0h-0.1h-0.1c-0.2,0-0.4-0.2-0.5-0.4v-0.1v-6.4v-0.2v-4c0-0.3,0.3-0.6,0.6-0.6c0.3,0,0.6,0.2,0.6,0.6v1.1
					c0.9-1,2.2-1.7,3.6-1.7c1.8,0,3.4,1,4.2,2.5c0.8-1.5,2.4-2.5,4.2-2.5c2.6,0,4.8,2.1,4.8,4.8v6.4c0,0.3-0.2,0.6-0.6,0.6
					c-0.3,0-0.6-0.3-0.6-0.6V393.8z"/>
				<path class="st0" d="M371.6,394.9c0-3.3,2.5-5.9,5.7-5.9c3,0,5.4,2.4,5.7,5.5v0v0.1c0,0.3-0.3,0.5-0.6,0.5h-9.6
					c0.1,2.6,2.1,4.5,4.6,4.5c1.6,0,3-0.8,3.8-2.1c0.2-0.3,0.5-0.3,0.8-0.2c0.3,0.2,0.4,0.5,0.2,0.8c-1,1.6-2.8,2.7-4.8,2.7
					C374.1,400.7,371.6,398.1,371.6,394.9z M372.8,394h8.9c-0.4-2.2-2.3-3.8-4.4-3.8C375.1,390.1,373.2,391.7,372.8,394z"/>
				<path class="st0" d="M390.7,389.6c0,0.3-0.3,0.6-0.6,0.6h-1.5v8.6c0,0.6,0.6,0.9,0.9,0.9s0.6,0.3,0.6,0.6s-0.3,0.6-0.6,0.6
					c-1.2,0-2.1-0.9-2.1-2v-8.6h-1.5c-0.6,0-0.6-0.3-0.6-0.6s0-0.6,0.6-0.6h1.5v-4.4c0-0.3,0.3-0.6,0.6-0.6c0.3,0,0.6,0.3,0.6,0.6
					v4.4h1.5C390.4,389,390.7,389.3,390.7,389.6z"/>
				<path class="st0" d="M395.9,402.6c0.9-0.5,1.2-1,1.1-1.8c-0.4-0.1-0.6-0.4-0.6-0.8v-0.5c0-0.5,0.3-0.8,0.8-0.8s0.8,0.3,0.8,0.8
					v0.6c0,1.3-0.2,2.1-0.6,2.5c-0.4,0.4-1,0.8-1.2,0.8c-0.2,0-0.4-0.1-0.4-0.4C395.7,402.8,395.8,402.7,395.9,402.6z"/>
				<path class="st0" d="M409.5,394.8c0-3.3,2.7-5.9,6-5.9c1.4,0,2.7,0.5,3.7,1.3c0.2,0.2,0.3,0.5,0.1,0.8c-0.2,0.2-0.5,0.3-0.8,0.1
					c-0.8-0.7-1.9-1.1-3-1.1c-2.7,0-4.9,2.1-4.9,4.7c0,2.6,2.2,4.8,4.9,4.8c1.1,0,2.2-0.4,3-1c0.3-0.2,0.6-0.1,0.8,0.1
					c0.2,0.3,0.2,0.6-0.1,0.8c-1,0.8-2.3,1.2-3.7,1.2C412.2,400.7,409.5,398.2,409.5,394.8z"/>
				<path class="st0" d="M429.1,389c3.1,0,5.6,2.7,5.6,5.9c0,3.2-2.5,5.9-5.6,5.9c-3.1,0-5.6-2.7-5.6-5.9
					C423.6,391.7,426.1,389,429.1,389z M429.1,399.6c2.4,0,4.4-2.1,4.4-4.7s-2-4.8-4.4-4.8c-2.4,0-4.4,2.1-4.4,4.8
					S426.7,399.6,429.1,399.6z"/>
				<path class="st0" d="M448,393.8c0-2-1.6-3.6-3.6-3.6c-2,0-3.6,1.6-3.6,3.6v6.4v0.1c0,0.1,0,0.2-0.1,0.3
					c-0.1,0.1-0.3,0.2-0.4,0.2H440c-0.2,0-0.3-0.2-0.4-0.3c0,0,0,0,0-0.1c0,0,0,0,0,0v-0.1v-6.4v-0.2v-4c0-0.3,0.2-0.6,0.6-0.6
					c0.3,0,0.6,0.3,0.6,0.6v1.1c0.9-1,2.2-1.7,3.6-1.7c2.6,0,4.8,2.2,4.8,4.8v6.4c0,0.3-0.3,0.6-0.6,0.6s-0.6-0.2-0.6-0.6V393.8z"/>
				<path class="st0" d="M454,398.3c0.2-0.2,0.6-0.3,0.8-0.1c0.8,0.6,2.1,1.4,3.6,1.4c0.9,0,1.7-0.3,2.2-0.7
					c0.6-0.4,0.9-0.9,0.9-1.4c0-0.6-0.2-0.9-0.8-1.4c-0.5-0.4-1.3-0.7-2.5-0.9l0,0c-1.1-0.2-2-0.4-2.7-0.9c-0.7-0.4-1.3-1.2-1.3-2.1
					c0-0.9,0.5-1.8,1.3-2.3c0.7-0.5,1.7-0.8,2.9-0.8c1.5,0,2.6,0.7,3.5,1.3c0.3,0.2,0.3,0.6,0.2,0.8c-0.2,0.3-0.5,0.3-0.8,0.2
					c-0.9-0.6-1.7-1.2-2.9-1.2c-1,0-1.7,0.3-2.2,0.7c-0.5,0.4-0.7,0.9-0.7,1.3c0,0.5,0.2,0.8,0.7,1.2c0.5,0.4,1.3,0.6,2.4,0.8h0
					c1.1,0.2,2,0.5,2.9,1c0.8,0.5,1.3,1.4,1.3,2.4c0,1-0.6,1.8-1.3,2.4c-0.8,0.6-1.8,0.9-2.9,0.9c-1.9,0-3.4-0.9-4.3-1.7
					C453.8,398.9,453.8,398.5,454,398.3z"/>
				<path class="st0" d="M466.2,394.9c0-3.3,2.5-5.9,5.7-5.9c3,0,5.4,2.4,5.7,5.5v0v0.1c0,0.3-0.3,0.5-0.6,0.5h-9.6
					c0.1,2.6,2.1,4.5,4.6,4.5c1.6,0,3-0.8,3.8-2.1c0.2-0.3,0.5-0.3,0.8-0.2c0.3,0.2,0.4,0.5,0.2,0.8c-1,1.6-2.8,2.7-4.8,2.7
					C468.8,400.7,466.2,398.1,466.2,394.9z M467.5,394h8.9c-0.4-2.2-2.3-3.8-4.4-3.8C469.8,390.1,467.9,391.7,467.5,394z"/>
				<path class="st0" d="M481.3,394.8c0-3.3,2.7-5.9,6-5.9c1.4,0,2.7,0.5,3.7,1.3c0.2,0.2,0.3,0.5,0.1,0.8c-0.2,0.2-0.5,0.3-0.8,0.1
					c-0.8-0.7-1.9-1.1-3-1.1c-2.7,0-4.9,2.1-4.9,4.7c0,2.6,2.2,4.8,4.9,4.8c1.1,0,2.2-0.4,3-1c0.3-0.2,0.6-0.1,0.8,0.1
					c0.2,0.3,0.2,0.6-0.1,0.8c-1,0.8-2.3,1.2-3.7,1.2C484,400.7,481.3,398.2,481.3,394.8z"/>
				<path class="st0" d="M500.5,389.6c0,0.3-0.3,0.6-0.6,0.6h-1.5v8.6c0,0.6,0.6,0.9,0.9,0.9s0.6,0.3,0.6,0.6s-0.3,0.6-0.6,0.6
					c-1.2,0-2.1-0.9-2.1-2v-8.6h-1.5c-0.6,0-0.6-0.3-0.6-0.6s0-0.6,0.6-0.6h1.5v-4.4c0-0.3,0.3-0.6,0.6-0.6c0.3,0,0.6,0.3,0.6,0.6
					v4.4h1.5C500.2,389,500.5,389.3,500.5,389.6z"/>
				<path class="st0" d="M504.6,394.9c0-3.3,2.5-5.9,5.7-5.9c3,0,5.4,2.4,5.7,5.5v0v0.1c0,0.3-0.3,0.5-0.6,0.5h-9.6
					c0.1,2.6,2.1,4.5,4.6,4.5c1.6,0,3-0.8,3.8-2.1c0.2-0.3,0.5-0.3,0.8-0.2c0.3,0.2,0.4,0.5,0.2,0.8c-1,1.6-2.8,2.7-4.8,2.7
					C507.2,400.7,504.6,398.1,504.6,394.9z M505.9,394h8.9c-0.4-2.2-2.3-3.8-4.4-3.8C508.2,390.1,506.3,391.7,505.9,394z"/>
				<path class="st0" d="M523.7,389.6c0,0.3-0.3,0.6-0.6,0.6h-1.5v8.6c0,0.6,0.6,0.9,0.9,0.9s0.6,0.3,0.6,0.6s-0.3,0.6-0.6,0.6
					c-1.2,0-2.1-0.9-2.1-2v-8.6H519c-0.6,0-0.6-0.3-0.6-0.6s0-0.6,0.6-0.6h1.5v-4.4c0-0.3,0.3-0.6,0.6-0.6c0.3,0,0.6,0.3,0.6,0.6
					v4.4h1.5C523.4,389,523.7,389.3,523.7,389.6z"/>
				<path class="st0" d="M529.5,389.5c0-0.3,0.3-0.6,0.6-0.6c0.3,0,0.6,0.2,0.6,0.6v6.4c0,2,1.6,3.6,3.6,3.6c2,0,3.6-1.6,3.6-3.6
					v-6.4c0-0.3,0.3-0.6,0.6-0.6c0.3,0,0.6,0.2,0.6,0.6v6.4c0,2.6-2.1,4.8-4.8,4.8c-2.6,0-4.8-2.2-4.8-4.8V389.5z"/>
				<path class="st0" d="M544.9,389.6c0-0.3,0.3-0.6,0.6-0.6c0.3,0,0.6,0.2,0.6,0.6v2.6c0-0.1,0.1-0.2,0.2-0.3
					c0.9-1.4,2.4-2.9,4.7-2.9c0.3,0,0.6,0.2,0.6,0.6c0,0.3-0.3,0.6-0.6,0.6c-1.5,0-2.6,0.9-3.4,1.9c-0.8,1.1-1.2,2.3-1.4,2.7
					c0,0.1,0,0.1,0,0.2v5.2c0,0.3-0.3,0.6-0.6,0.6c-0.3,0-0.6-0.2-0.6-0.6V389.6z"/>
				<path class="st0" d="M67.8,419.6v10.6c0,0.3-0.3,0.6-0.6,0.6s-0.6-0.3-0.6-0.6v-1.8c-1,1.4-2.6,2.3-4.4,2.3
					c-3.1,0-5.6-2.7-5.6-5.9s2.5-5.9,5.6-5.9c1.8,0,3.4,0.9,4.4,2.3v-1.7c0-0.3,0.3-0.6,0.6-0.6S67.8,419.2,67.8,419.6z M66.6,424.9
					c0-2.6-2-4.8-4.4-4.8c-2.4,0-4.4,2.1-4.4,4.8s2,4.7,4.4,4.7C64.6,429.6,66.6,427.5,66.6,424.9z"/>
				<path class="st0" d="M82.6,428.5c-1,1.4-2.7,2.3-4.5,2.3c-3.2,0-5.7-2.6-5.7-5.9c0-3.3,2.5-5.9,5.7-5.9c1.8,0,3.5,0.9,4.5,2.3
					v-6.8c0-0.3,0.3-0.6,0.6-0.6c0.3,0,0.6,0.3,0.6,0.6v10.1v0.2v5.3c0,0.3-0.3,0.6-0.6,0.6c-0.3,0-0.6-0.3-0.6-0.6V428.5z
					 M82.6,425.1v-0.4c-0.1-2.5-2.1-4.5-4.5-4.5c-2.5,0-4.5,2.1-4.5,4.7c0,2.6,2,4.7,4.5,4.7C80.6,429.6,82.5,427.6,82.6,425.1z"/>
				<path class="st0" d="M89.6,415.7c0-0.3,0.3-0.6,0.6-0.6c0.3,0,0.6,0.3,0.6,0.6v0.6c0,0.3-0.3,0.6-0.6,0.6
					c-0.3,0-0.6-0.3-0.6-0.6V415.7z M89.6,419.6c0-0.3,0.3-0.6,0.6-0.6c0.3,0,0.6,0.2,0.6,0.6v10.6c0,0.3-0.3,0.6-0.6,0.6
					c-0.3,0-0.6-0.3-0.6-0.6V419.6z"/>
				<path class="st0" d="M96.8,425.1v-0.2v-0.2v-5c0-0.3,0.3-0.6,0.6-0.6c0.3,0,0.6,0.3,0.6,0.6v1.7c1-1.4,2.6-2.3,4.5-2.3
					c3.2,0,5.7,2.6,5.7,5.8c0,3.2-2.5,5.9-5.7,5.9c-1.8,0-3.5-0.9-4.5-2.3v6.7c0,0.3-0.3,0.6-0.6,0.6c-0.3,0-0.6-0.3-0.6-0.6V425.1z
					 M97.9,424.8c0,2.6,2,4.7,4.5,4.7c2.5,0,4.5-2.1,4.5-4.7c0-2.6-2-4.7-4.5-4.7c-2.4,0-4.4,2-4.5,4.5V424.8z"/>
				<path class="st0" d="M112.4,415.7c0-0.3,0.3-0.6,0.6-0.6c0.3,0,0.6,0.3,0.6,0.6v0.6c0,0.3-0.3,0.6-0.6,0.6
					c-0.3,0-0.6-0.3-0.6-0.6V415.7z M112.4,419.6c0-0.3,0.3-0.6,0.6-0.6c0.3,0,0.6,0.2,0.6,0.6v10.6c0,0.3-0.3,0.6-0.6,0.6
					c-0.3,0-0.6-0.3-0.6-0.6V419.6z"/>
				<path class="st0" d="M118.8,428.3c0.2-0.2,0.6-0.3,0.8-0.1c0.8,0.6,2.1,1.4,3.6,1.4c0.9,0,1.7-0.3,2.2-0.7
					c0.6-0.4,0.9-0.9,0.9-1.4c0-0.6-0.2-0.9-0.8-1.4c-0.5-0.4-1.3-0.7-2.5-0.9l0,0c-1.1-0.2-2-0.4-2.7-0.9c-0.7-0.4-1.3-1.2-1.3-2.1
					c0-0.9,0.5-1.8,1.3-2.3c0.7-0.5,1.7-0.8,2.9-0.8c1.5,0,2.6,0.7,3.5,1.3c0.3,0.2,0.3,0.6,0.2,0.8c-0.2,0.3-0.5,0.3-0.8,0.2
					c-0.9-0.6-1.7-1.2-2.9-1.2c-1,0-1.7,0.3-2.2,0.7c-0.5,0.4-0.7,0.9-0.7,1.3c0,0.5,0.2,0.8,0.7,1.2c0.5,0.4,1.3,0.6,2.4,0.8h0
					c1.1,0.2,2,0.5,2.9,1c0.8,0.5,1.3,1.4,1.3,2.4c0,1-0.6,1.8-1.3,2.4c-0.8,0.6-1.8,0.9-2.9,0.9c-1.9,0-3.4-0.9-4.3-1.7
					C118.6,428.9,118.6,428.5,118.8,428.3z"/>
				<path class="st0" d="M131,424.8c0-3.3,2.7-5.9,6-5.9c1.4,0,2.7,0.5,3.7,1.3c0.2,0.2,0.3,0.5,0.1,0.8c-0.2,0.2-0.5,0.3-0.8,0.1
					c-0.8-0.7-1.9-1.1-3-1.1c-2.7,0-4.9,2.1-4.9,4.7c0,2.6,2.2,4.8,4.9,4.8c1.1,0,2.2-0.4,3-1c0.3-0.2,0.6-0.1,0.8,0.1
					c0.2,0.3,0.2,0.6-0.1,0.8c-1,0.8-2.3,1.2-3.7,1.2C133.7,430.7,131,428.2,131,424.8z"/>
				<path class="st0" d="M146.1,415.7c0-0.3,0.3-0.6,0.6-0.6c0.3,0,0.6,0.3,0.6,0.6v0.6c0,0.3-0.3,0.6-0.6,0.6
					c-0.3,0-0.6-0.3-0.6-0.6V415.7z M146.1,419.6c0-0.3,0.3-0.6,0.6-0.6c0.3,0,0.6,0.2,0.6,0.6v10.6c0,0.3-0.3,0.6-0.6,0.6
					c-0.3,0-0.6-0.3-0.6-0.6V419.6z"/>
				<path class="st0" d="M161.7,423.8c0-2-1.6-3.6-3.6-3.6c-2,0-3.6,1.6-3.6,3.6v6.4v0.1c0,0.1,0,0.2-0.1,0.3
					c-0.1,0.1-0.3,0.2-0.4,0.2h-0.1c-0.2,0-0.3-0.2-0.4-0.3c0,0,0,0,0-0.1c0,0,0,0,0,0v-0.1v-6.4v-0.2v-4c0-0.3,0.2-0.6,0.6-0.6
					c0.3,0,0.6,0.3,0.6,0.6v1.1c0.9-1,2.2-1.7,3.6-1.7c2.6,0,4.8,2.2,4.8,4.8v6.4c0,0.3-0.3,0.6-0.6,0.6s-0.6-0.2-0.6-0.6V423.8z"/>
				<path class="st0" d="M178.7,429.8c0,3-2.5,5.5-5.5,5.5c-0.9,0-1.7-0.2-2.4-0.6c-0.2-0.2-0.4-0.5-0.2-0.8
					c0.1-0.3,0.5-0.4,0.8-0.3c0.6,0.3,1.2,0.4,1.9,0.4c2.4,0,4.4-1.9,4.4-4.4v-1.4c-1,1.4-2.6,2.3-4.4,2.3c-3.1,0-5.5-2.6-5.5-5.9
					c0-3.2,2.4-5.8,5.5-5.8c1.8,0,3.4,0.9,4.4,2.3v-1.7c0-0.3,0.3-0.6,0.6-0.6c0.3,0,0.6,0.3,0.6,0.6V429.8z M177.6,424.8
					c0-2.6-2-4.7-4.4-4.7c-2.4,0-4.4,2.1-4.4,4.7c0,2.6,2,4.7,4.4,4.7C175.6,429.5,177.6,427.5,177.6,424.8z"/>
				<path class="st0" d="M191.6,424.9c0-3.3,2.5-5.9,5.7-5.9c3,0,5.4,2.4,5.7,5.5v0v0.1c0,0.3-0.3,0.5-0.6,0.5h-9.6
					c0.1,2.6,2.1,4.5,4.6,4.5c1.6,0,3-0.8,3.8-2.1c0.2-0.3,0.5-0.3,0.8-0.2c0.3,0.2,0.4,0.5,0.2,0.8c-1,1.6-2.8,2.7-4.8,2.7
					C194.2,430.7,191.6,428.1,191.6,424.9z M192.8,424h8.9c-0.4-2.2-2.3-3.8-4.4-3.8C195.1,420.1,193.3,421.7,192.8,424z"/>
				<path class="st0" d="M207.7,414.5c0-0.3,0.3-0.6,0.6-0.6c0.3,0,0.6,0.3,0.6,0.6v15.6c0,0.3-0.3,0.6-0.6,0.6
					c-0.3,0-0.6-0.3-0.6-0.6V414.5z"/>
				<path class="st0" d="M214,415.7c0-0.3,0.3-0.6,0.6-0.6c0.3,0,0.6,0.3,0.6,0.6v0.6c0,0.3-0.3,0.6-0.6,0.6c-0.3,0-0.6-0.3-0.6-0.6
					V415.7z M214,419.6c0-0.3,0.3-0.6,0.6-0.6c0.3,0,0.6,0.2,0.6,0.6v10.6c0,0.3-0.3,0.6-0.6,0.6c-0.3,0-0.6-0.3-0.6-0.6V419.6z"/>
				<path class="st0" d="M225.3,419.6c0,0.3-0.3,0.6-0.6,0.6h-1.5v8.6c0,0.6,0.6,0.9,0.9,0.9s0.6,0.3,0.6,0.6s-0.3,0.6-0.6,0.6
					c-1.2,0-2.1-0.9-2.1-2v-8.6h-1.5c-0.6,0-0.6-0.3-0.6-0.6s0-0.6,0.6-0.6h1.5v-4.4c0-0.3,0.3-0.6,0.6-0.6c0.3,0,0.6,0.3,0.6,0.6
					v4.4h1.5C225.1,419,225.3,419.3,225.3,419.6z"/>
				<path class="st0" d="M232.3,428.3c0.7,0,1.2,0.5,1.2,1.2c0,0.7-0.5,1.2-1.2,1.2c-0.7,0-1.2-0.5-1.2-1.2
					C231.1,428.9,231.6,428.3,232.3,428.3z"/>
				<path class="st0" d="M245.3,414.5c0-0.3,0.3-0.6,0.6-0.6c0.3,0,0.6,0.3,0.6,0.6v9.4c0,3.1,2.5,5.6,5.6,5.6
					c3.1,0,5.6-2.5,5.6-5.6v-9.4c0-0.3,0.3-0.6,0.6-0.6c0.3,0,0.6,0.3,0.6,0.6v9.4c0,3.7-3,6.8-6.8,6.8c-3.7,0-6.8-3-6.8-6.8V414.5z
					"/>
				<path class="st0" d="M269.1,419.6c0,0.3-0.3,0.6-0.6,0.6H267v8.6c0,0.6,0.6,0.9,0.9,0.9s0.6,0.3,0.6,0.6s-0.3,0.6-0.6,0.6
					c-1.2,0-2.1-0.9-2.1-2v-8.6h-1.5c-0.6,0-0.6-0.3-0.6-0.6s0-0.6,0.6-0.6h1.5v-4.4c0-0.3,0.3-0.6,0.6-0.6c0.3,0,0.6,0.3,0.6,0.6
					v4.4h1.5C268.8,419,269.1,419.3,269.1,419.6z"/>
				<path class="st0" d="M282.5,419.5c0-0.3,0.3-0.6,0.6-0.6s0.6,0.2,0.6,0.6v6.4c0,2,1.6,3.6,3.6,3.6c2,0,3.6-1.6,3.6-3.6v-6.4
					c0-0.3,0.3-0.6,0.6-0.6c0.3,0,0.6,0.2,0.6,0.6v6.4c0,2.6-2.1,4.8-4.8,4.8c-2.6,0-4.8-2.2-4.8-4.8V419.5z"/>
				<path class="st0" d="M302.1,419.6c0,0.3-0.3,0.6-0.6,0.6H300v8.6c0,0.6,0.6,0.9,0.9,0.9s0.6,0.3,0.6,0.6s-0.3,0.6-0.6,0.6
					c-1.2,0-2.1-0.9-2.1-2v-8.6h-1.5c-0.6,0-0.6-0.3-0.6-0.6s0-0.6,0.6-0.6h1.5v-4.4c0-0.3,0.3-0.6,0.6-0.6c0.3,0,0.6,0.3,0.6,0.6
					v4.4h1.5C301.8,419,302.1,419.3,302.1,419.6z"/>
				<path class="st0" d="M319.8,419.6c0,0.3-0.3,0.6-0.6,0.6h-1.5v8.6c0,0.6,0.6,0.9,0.9,0.9s0.6,0.3,0.6,0.6s-0.3,0.6-0.6,0.6
					c-1.2,0-2.1-0.9-2.1-2v-8.6h-1.5c-0.6,0-0.6-0.3-0.6-0.6s0-0.6,0.6-0.6h1.5v-4.4c0-0.3,0.3-0.6,0.6-0.6c0.3,0,0.6,0.3,0.6,0.6
					v4.4h1.5C319.5,419,319.8,419.3,319.8,419.6z"/>
				<path class="st0" d="M325.8,415.7c0-0.3,0.3-0.6,0.6-0.6c0.3,0,0.6,0.3,0.6,0.6v0.6c0,0.3-0.3,0.6-0.6,0.6
					c-0.3,0-0.6-0.3-0.6-0.6V415.7z M325.8,419.6c0-0.3,0.3-0.6,0.6-0.6c0.3,0,0.6,0.2,0.6,0.6v10.6c0,0.3-0.3,0.6-0.6,0.6
					c-0.3,0-0.6-0.3-0.6-0.6V419.6z"/>
				<path class="st0" d="M341.4,423.8c0-2-1.6-3.6-3.6-3.6c-2,0-3.6,1.6-3.6,3.6v6.4v0.1c0,0.1,0,0.2-0.1,0.3
					c-0.1,0.1-0.3,0.2-0.4,0.2h-0.1c-0.2,0-0.3-0.2-0.4-0.3c0,0,0,0,0-0.1c0,0,0,0,0,0v-0.1v-6.4v-0.2v-4c0-0.3,0.2-0.6,0.6-0.6
					c0.3,0,0.6,0.3,0.6,0.6v1.1c0.9-1,2.2-1.7,3.6-1.7c2.6,0,4.8,2.2,4.8,4.8v6.4c0,0.3-0.3,0.6-0.6,0.6s-0.6-0.2-0.6-0.6V423.8z"/>
				<path class="st0" d="M347.4,424.8c0-3.3,2.7-5.9,6-5.9c1.4,0,2.7,0.5,3.7,1.3c0.2,0.2,0.3,0.5,0.1,0.8c-0.2,0.2-0.5,0.3-0.8,0.1
					c-0.8-0.7-1.9-1.1-3-1.1c-2.7,0-4.9,2.1-4.9,4.7c0,2.6,2.2,4.8,4.9,4.8c1.1,0,2.2-0.4,3-1c0.3-0.2,0.6-0.1,0.8,0.1
					c0.2,0.3,0.2,0.6-0.1,0.8c-1,0.8-2.3,1.2-3.7,1.2C350.1,430.7,347.4,428.2,347.4,424.8z"/>
				<path class="st0" d="M362.4,415.7c0-0.3,0.3-0.6,0.6-0.6c0.3,0,0.6,0.3,0.6,0.6v0.6c0,0.3-0.3,0.6-0.6,0.6
					c-0.3,0-0.6-0.3-0.6-0.6V415.7z M362.4,419.6c0-0.3,0.3-0.6,0.6-0.6c0.3,0,0.6,0.2,0.6,0.6v10.6c0,0.3-0.3,0.6-0.6,0.6
					c-0.3,0-0.6-0.3-0.6-0.6V419.6z"/>
				<path class="st0" d="M379,428.5c-1,1.4-2.7,2.3-4.5,2.3c-3.2,0-5.7-2.6-5.7-5.9c0-3.3,2.5-5.9,5.7-5.9c1.8,0,3.5,0.9,4.5,2.3
					v-6.8c0-0.3,0.3-0.6,0.6-0.6c0.3,0,0.6,0.3,0.6,0.6v10.1v0.2v5.3c0,0.3-0.3,0.6-0.6,0.6c-0.3,0-0.6-0.3-0.6-0.6V428.5z
					 M379,425.1v-0.4c-0.1-2.5-2.1-4.5-4.5-4.5c-2.5,0-4.5,2.1-4.5,4.7c0,2.6,2,4.7,4.5,4.7C376.9,429.6,378.9,427.6,379,425.1z"/>
				<path class="st0" d="M385.7,419.5c0-0.3,0.3-0.6,0.6-0.6s0.6,0.2,0.6,0.6v6.4c0,2,1.6,3.6,3.6,3.6c2,0,3.6-1.6,3.6-3.6v-6.4
					c0-0.3,0.3-0.6,0.6-0.6c0.3,0,0.6,0.2,0.6,0.6v6.4c0,2.6-2.1,4.8-4.8,4.8c-2.6,0-4.8-2.2-4.8-4.8V419.5z"/>
				<path class="st0" d="M409,423.8c0-2-1.6-3.6-3.6-3.6c-2,0-3.6,1.6-3.6,3.6v6.4v0.1c0,0.1,0,0.2-0.1,0.3
					c-0.1,0.1-0.3,0.2-0.4,0.2H401c-0.2,0-0.3-0.2-0.4-0.3c0,0,0,0,0-0.1c0,0,0,0,0,0v-0.1v-6.4v-0.2v-4c0-0.3,0.2-0.6,0.6-0.6
					c0.3,0,0.6,0.3,0.6,0.6v1.1c0.9-1,2.2-1.7,3.6-1.7c2.6,0,4.8,2.2,4.8,4.8v6.4c0,0.3-0.3,0.6-0.6,0.6s-0.6-0.2-0.6-0.6V423.8z"/>
				<path class="st0" d="M419.9,419.6c0,0.3-0.3,0.6-0.6,0.6h-1.5v8.6c0,0.6,0.6,0.9,0.9,0.9s0.6,0.3,0.6,0.6s-0.3,0.6-0.6,0.6
					c-1.2,0-2.1-0.9-2.1-2v-8.6h-1.5c-0.6,0-0.6-0.3-0.6-0.6s0-0.6,0.6-0.6h1.5v-4.4c0-0.3,0.3-0.6,0.6-0.6c0.3,0,0.6,0.3,0.6,0.6
					v4.4h1.5C419.6,419,419.9,419.3,419.9,419.6z"/>
				<path class="st0" d="M432.7,428.3c0.2-0.2,0.6-0.3,0.8-0.1c0.8,0.6,2.1,1.4,3.6,1.4c0.9,0,1.7-0.3,2.2-0.7
					c0.6-0.4,0.9-0.9,0.9-1.4c0-0.6-0.2-0.9-0.8-1.4c-0.5-0.4-1.3-0.7-2.5-0.9l0,0c-1.1-0.2-2-0.4-2.7-0.9c-0.7-0.4-1.3-1.2-1.3-2.1
					c0-0.9,0.5-1.8,1.3-2.3c0.7-0.5,1.7-0.8,2.9-0.8c1.5,0,2.6,0.7,3.5,1.3c0.3,0.2,0.3,0.6,0.2,0.8c-0.2,0.3-0.5,0.3-0.8,0.2
					c-0.9-0.6-1.7-1.2-2.9-1.2c-1,0-1.7,0.3-2.2,0.7c-0.5,0.4-0.7,0.9-0.7,1.3c0,0.5,0.2,0.8,0.7,1.2c0.5,0.4,1.3,0.6,2.4,0.8h0
					c1.1,0.2,2,0.5,2.9,1c0.8,0.5,1.3,1.4,1.3,2.4c0,1-0.6,1.8-1.3,2.4c-0.8,0.6-1.8,0.9-2.9,0.9c-1.9,0-3.4-0.9-4.3-1.7
					C432.5,428.9,432.5,428.5,432.7,428.3z"/>
				<path class="st0" d="M445,424.9c0-3.3,2.5-5.9,5.7-5.9c3,0,5.4,2.4,5.7,5.5v0v0.1c0,0.3-0.3,0.5-0.6,0.5h-9.6
					c0.1,2.6,2.1,4.5,4.6,4.5c1.6,0,3-0.8,3.8-2.1c0.2-0.3,0.5-0.3,0.8-0.2c0.3,0.2,0.4,0.5,0.2,0.8c-1,1.6-2.8,2.7-4.8,2.7
					C447.5,430.7,445,428.1,445,424.9z M446.2,424h8.9c-0.4-2.2-2.3-3.8-4.4-3.8C448.5,420.1,446.6,421.7,446.2,424z"/>
				<path class="st0" d="M477.7,423.8c0-2-1.6-3.6-3.6-3.6c-2,0-3.6,1.7-3.6,3.6v6.4v0.1c0,0,0,0,0,0v0c0,0.1-0.2,0.2-0.3,0.3
					c-0.1,0-0.2,0.1-0.3,0.1h-0.1h0c0,0,0,0,0,0c0,0-0.1,0-0.1-0.1c0,0,0,0-0.1,0l-0.1-0.1c0,0,0,0,0,0c0,0,0,0,0,0c0,0,0,0,0,0
					c0,0,0,0,0-0.1v-0.1v0v-6.4c0-2-1.6-3.6-3.6-3.6c-2,0-3.6,1.7-3.6,3.6v6.4c0,0.2-0.1,0.4-0.3,0.5c0,0-0.1,0.1-0.1,0.1
					c0,0,0,0-0.1,0h-0.1h-0.1c-0.2,0-0.4-0.2-0.5-0.4v-0.1v-6.4v-0.2v-4c0-0.3,0.3-0.6,0.6-0.6c0.3,0,0.6,0.2,0.6,0.6v1.1
					c0.9-1,2.2-1.7,3.6-1.7c1.8,0,3.4,1,4.2,2.5c0.8-1.5,2.4-2.5,4.2-2.5c2.6,0,4.8,2.1,4.8,4.8v6.4c0,0.3-0.2,0.6-0.6,0.6
					c-0.3,0-0.6-0.3-0.6-0.6V423.8z"/>
				<path class="st0" d="M485.1,428.3c0.7,0,1.2,0.5,1.2,1.2c0,0.7-0.5,1.2-1.2,1.2c-0.7,0-1.2-0.5-1.2-1.2
					C483.9,428.9,484.5,428.3,485.1,428.3z"/>
				<path class="st0" d="M497.4,427.6c0.2-0.2,0.5-0.3,0.7-0.1c1.2,1,3.3,2.2,5.5,2.2c1.5,0,2.8-0.4,3.7-1.1
					c0.9-0.7,1.4-1.6,1.4-2.5c0-1-0.5-1.7-1.4-2.3c-0.9-0.6-2.3-1.1-3.9-1.4h0c-1.6-0.3-2.9-0.7-4-1.4c-1-0.7-1.7-1.7-1.7-2.9
					c0-1.3,0.7-2.4,1.8-3.1s2.5-1.2,4.1-1.2c2.2,0,3.9,1.1,5.2,1.9c0.2,0.2,0.3,0.5,0.1,0.7c-0.1,0.2-0.5,0.3-0.7,0.1
					c-1.3-0.9-2.8-1.8-4.6-1.8c-1.4,0-2.6,0.4-3.4,1c-0.8,0.6-1.3,1.4-1.3,2.3c0,0.8,0.4,1.5,1.2,2c0.8,0.6,2.1,1,3.6,1.3h0
					c1.7,0.3,3.2,0.8,4.3,1.5c1.1,0.7,1.8,1.8,1.8,3.2c0,1.3-0.8,2.5-1.9,3.4c-1.1,0.8-2.6,1.3-4.3,1.3c-2.6,0-4.8-1.3-6.2-2.4
					C497.2,428.2,497.2,427.8,497.4,427.6z"/>
				<path class="st0" d="M513.5,424.9c0-3.3,2.5-5.9,5.7-5.9c3,0,5.4,2.4,5.7,5.5v0v0.1c0,0.3-0.3,0.5-0.6,0.5h-9.6
					c0.1,2.6,2.1,4.5,4.6,4.5c1.6,0,3-0.8,3.8-2.1c0.2-0.3,0.5-0.3,0.8-0.2c0.3,0.2,0.4,0.5,0.2,0.8c-1,1.6-2.8,2.7-4.8,2.7
					C516.1,430.7,513.5,428.1,513.5,424.9z M514.8,424h8.9c-0.4-2.2-2.3-3.8-4.4-3.8C517,420.1,515.2,421.7,514.8,424z"/>
				<path class="st0" d="M538.9,428.5c-1,1.4-2.7,2.3-4.5,2.3c-3.2,0-5.7-2.6-5.7-5.9c0-3.3,2.5-5.9,5.7-5.9c1.8,0,3.5,0.9,4.5,2.3
					v-6.8c0-0.3,0.3-0.6,0.6-0.6c0.3,0,0.6,0.3,0.6,0.6v10.1v0.2v5.3c0,0.3-0.3,0.6-0.6,0.6c-0.3,0-0.6-0.3-0.6-0.6V428.5z
					 M538.9,425.1v-0.4c-0.1-2.5-2.1-4.5-4.5-4.5c-2.5,0-4.5,2.1-4.5,4.7c0,2.6,2,4.7,4.5,4.7C536.8,429.6,538.8,427.6,538.9,425.1z
					"/>
				<path class="st0" d="M553.6,414.5c0-0.3,0.3-0.6,0.6-0.6c0.3,0,0.6,0.3,0.6,0.6v15.6c0,0.3-0.3,0.6-0.6,0.6
					c-0.3,0-0.6-0.3-0.6-0.6V414.5z"/>
				<path class="st0" d="M564.9,419c3.1,0,5.6,2.7,5.6,5.9c0,3.2-2.5,5.9-5.6,5.9c-3.1,0-5.6-2.7-5.6-5.9
					C559.4,421.7,561.9,419,564.9,419z M564.9,429.6c2.4,0,4.4-2.1,4.4-4.7s-2-4.8-4.4-4.8c-2.4,0-4.4,2.1-4.4,4.8
					S562.5,429.6,564.9,429.6z"/>
				<path class="st0" d="M574.9,419.6c0-0.3,0.3-0.6,0.6-0.6c0.3,0,0.6,0.2,0.6,0.6v2.6c0-0.1,0.1-0.2,0.2-0.3
					c0.9-1.4,2.4-2.9,4.7-2.9c0.3,0,0.6,0.2,0.6,0.6c0,0.3-0.3,0.6-0.6,0.6c-1.5,0-2.6,0.9-3.4,1.9c-0.8,1.1-1.2,2.3-1.4,2.7
					c0,0.1,0,0.1,0,0.2v5.2c0,0.3-0.3,0.6-0.6,0.6c-0.3,0-0.6-0.2-0.6-0.6V419.6z"/>
				<path class="st0" d="M583.9,424.9c0-3.3,2.5-5.9,5.7-5.9c3,0,5.4,2.4,5.7,5.5v0v0.1c0,0.3-0.3,0.5-0.6,0.5H585
					c0.1,2.6,2.1,4.5,4.6,4.5c1.6,0,3-0.8,3.8-2.1c0.2-0.3,0.5-0.3,0.8-0.2c0.3,0.2,0.4,0.5,0.2,0.8c-1,1.6-2.8,2.7-4.8,2.7
					C586.4,430.7,583.9,428.1,583.9,424.9z M585.1,424h8.9c-0.4-2.2-2.3-3.8-4.4-3.8C587.4,420.1,585.6,421.7,585.1,424z"/>
				<path class="st0" d="M616.7,423.8c0-2-1.6-3.6-3.6-3.6c-2,0-3.6,1.7-3.6,3.6v6.4v0.1c0,0,0,0,0,0v0c0,0.1-0.2,0.2-0.3,0.3
					c-0.1,0-0.2,0.1-0.3,0.1h-0.1h0c0,0,0,0,0,0c0,0-0.1,0-0.1-0.1c0,0,0,0-0.1,0l-0.1-0.1c0,0,0,0,0,0c0,0,0,0,0,0c0,0,0,0,0,0
					c0,0,0,0,0-0.1v-0.1v0v-6.4c0-2-1.6-3.6-3.6-3.6c-2,0-3.6,1.7-3.6,3.6v6.4c0,0.2-0.1,0.4-0.3,0.5c0,0-0.1,0.1-0.1,0.1
					c0,0,0,0-0.1,0h-0.1h-0.1c-0.2,0-0.4-0.2-0.5-0.4v-0.1v-6.4v-0.2v-4c0-0.3,0.3-0.6,0.6-0.6c0.3,0,0.6,0.2,0.6,0.6v1.1
					c0.9-1,2.2-1.7,3.6-1.7c1.8,0,3.4,1,4.2,2.5c0.8-1.5,2.4-2.5,4.2-2.5c2.6,0,4.8,2.1,4.8,4.8v6.4c0,0.3-0.2,0.6-0.6,0.6
					c-0.3,0-0.6-0.3-0.6-0.6V423.8z"/>
				<path class="st0" d="M66.3,453.8c0-2-1.6-3.6-3.6-3.6c-2,0-3.6,1.6-3.6,3.6v6.4v0.1c0,0.1,0,0.2-0.1,0.3
					c-0.1,0.1-0.3,0.2-0.4,0.2h-0.1c-0.2,0-0.3-0.2-0.4-0.3c0,0,0,0,0-0.1c0,0,0,0,0,0v-0.1v-6.4v-0.2v-4c0-0.3,0.2-0.6,0.6-0.6
					c0.3,0,0.6,0.3,0.6,0.6v1.1c0.9-1,2.2-1.7,3.6-1.7c2.6,0,4.8,2.2,4.8,4.8v6.4c0,0.3-0.3,0.6-0.6,0.6s-0.6-0.2-0.6-0.6V453.8z"/>
				<path class="st0" d="M72.2,454.9c0-3.3,2.5-5.9,5.7-5.9c3,0,5.4,2.4,5.7,5.5v0v0.1c0,0.3-0.3,0.5-0.6,0.5h-9.6
					c0.1,2.6,2.1,4.5,4.6,4.5c1.6,0,3-0.8,3.8-2.1c0.2-0.3,0.5-0.3,0.8-0.2c0.3,0.2,0.4,0.5,0.2,0.8c-1,1.6-2.8,2.7-4.8,2.7
					C74.8,460.7,72.2,458.1,72.2,454.9z M73.5,454h8.9c-0.4-2.2-2.3-3.8-4.4-3.8C75.8,450.1,73.9,451.7,73.5,454z"/>
				<path class="st0" d="M97.5,458.4c-1,1.4-2.7,2.3-4.5,2.3c-3.1,0-5.6-2.7-5.6-5.9c0-3.2,2.5-5.8,5.6-5.8c1.8,0,3.5,0.9,4.5,2.3
					v-1.7c0-0.3,0.3-0.6,0.6-0.6c0.4,0,0.6,0.3,0.6,0.6v5v0.2v0.2v10c0,0.3-0.2,0.6-0.6,0.6c-0.3,0-0.6-0.3-0.6-0.6V458.4z
					 M93,459.5c2.5,0,4.5-2.1,4.5-4.7c0-2.6-2-4.7-4.5-4.7c-2.4,0-4.5,2-4.5,4.7C88.6,457.4,90.6,459.5,93,459.5z"/>
				<path class="st0" d="M104.3,449.5c0-0.3,0.3-0.6,0.6-0.6s0.6,0.2,0.6,0.6v6.4c0,2,1.6,3.6,3.6,3.6c2,0,3.6-1.6,3.6-3.6v-6.4
					c0-0.3,0.3-0.6,0.6-0.6c0.3,0,0.6,0.2,0.6,0.6v6.4c0,2.6-2.1,4.8-4.8,4.8c-2.6,0-4.8-2.2-4.8-4.8V449.5z"/>
				<path class="st0" d="M118.9,454.9c0-3.3,2.5-5.9,5.7-5.9c3,0,5.4,2.4,5.7,5.5v0v0.1c0,0.3-0.3,0.5-0.6,0.5H120
					c0.1,2.6,2.1,4.5,4.6,4.5c1.6,0,3-0.8,3.8-2.1c0.2-0.3,0.5-0.3,0.8-0.2c0.3,0.2,0.4,0.5,0.2,0.8c-1,1.6-2.8,2.7-4.8,2.7
					C121.4,460.7,118.9,458.1,118.9,454.9z M120.1,454h8.9c-0.4-2.2-2.3-3.8-4.4-3.8C122.4,450.1,120.5,451.7,120.1,454z"/>
				<path class="st0" d="M133.8,462.6c0.9-0.5,1.2-1,1.1-1.8c-0.4-0.1-0.6-0.4-0.6-0.8v-0.5c0-0.5,0.3-0.8,0.8-0.8s0.8,0.3,0.8,0.8
					v0.6c0,1.3-0.2,2.1-0.6,2.5c-0.4,0.4-1,0.8-1.2,0.8c-0.2,0-0.4-0.1-0.4-0.4C133.6,462.8,133.7,462.7,133.8,462.6z"/>
				<path class="st0" d="M157.6,458.5c-1,1.4-2.7,2.3-4.5,2.3c-3.2,0-5.7-2.6-5.7-5.9c0-3.3,2.5-5.9,5.7-5.9c1.8,0,3.5,0.9,4.5,2.3
					v-6.8c0-0.3,0.3-0.6,0.6-0.6c0.3,0,0.6,0.3,0.6,0.6v10.1v0.2v5.3c0,0.3-0.3,0.6-0.6,0.6c-0.3,0-0.6-0.3-0.6-0.6V458.5z
					 M157.6,455.1v-0.4c-0.1-2.5-2.1-4.5-4.5-4.5c-2.5,0-4.5,2.1-4.5,4.7c0,2.6,2,4.7,4.5,4.7C155.5,459.6,157.5,457.6,157.6,455.1z
					"/>
				<path class="st0" d="M174.4,449.6v10.6c0,0.3-0.3,0.6-0.6,0.6s-0.6-0.3-0.6-0.6v-1.8c-1,1.4-2.6,2.3-4.4,2.3
					c-3.1,0-5.6-2.7-5.6-5.9s2.5-5.9,5.6-5.9c1.8,0,3.4,0.9,4.4,2.3v-1.7c0-0.3,0.3-0.6,0.6-0.6S174.4,449.2,174.4,449.6z
					 M173.3,454.9c0-2.6-2-4.8-4.4-4.8c-2.4,0-4.4,2.1-4.4,4.8s2,4.7,4.4,4.7C171.3,459.6,173.3,457.5,173.3,454.9z"/>
				<path class="st0" d="M179.9,455.1v-0.2v-0.2v-5c0-0.3,0.3-0.6,0.6-0.6c0.3,0,0.6,0.3,0.6,0.6v1.7c1-1.4,2.6-2.3,4.5-2.3
					c3.2,0,5.7,2.6,5.7,5.8c0,3.2-2.5,5.9-5.7,5.9c-1.8,0-3.5-0.9-4.5-2.3v6.7c0,0.3-0.3,0.6-0.6,0.6c-0.3,0-0.6-0.3-0.6-0.6V455.1z
					 M181.1,454.8c0,2.6,2,4.7,4.5,4.7c2.5,0,4.5-2.1,4.5-4.7c0-2.6-2-4.7-4.5-4.7c-2.4,0-4.4,2-4.5,4.5V454.8z"/>
				<path class="st0" d="M195.5,445.7c0-0.3,0.3-0.6,0.6-0.6c0.3,0,0.6,0.3,0.6,0.6v0.6c0,0.3-0.3,0.6-0.6,0.6
					c-0.3,0-0.6-0.3-0.6-0.6V445.7z M195.5,449.6c0-0.3,0.3-0.6,0.6-0.6c0.3,0,0.6,0.2,0.6,0.6v10.6c0,0.3-0.3,0.6-0.6,0.6
					c-0.3,0-0.6-0.3-0.6-0.6V449.6z"/>
				<path class="st0" d="M202.7,455.1v-0.2v-0.2v-10.1c0-0.3,0.3-0.6,0.6-0.6c0.3,0,0.6,0.3,0.6,0.6v6.8c1-1.4,2.7-2.3,4.5-2.3
					c3.2,0,5.7,2.6,5.7,5.9c0,3.2-2.5,5.9-5.7,5.9c-1.8,0-3.5-0.9-4.5-2.3v1.7c0,0.3-0.3,0.6-0.6,0.6c-0.3,0-0.6-0.3-0.6-0.6V455.1z
					 M203.9,454.9c0,2.6,2,4.7,4.5,4.7c2.5,0,4.5-2.1,4.5-4.7c0-2.6-2-4.7-4.5-4.7c-2.4,0-4.4,2-4.5,4.5V454.9z"/>
				<path class="st0" d="M218.8,449.5c0-0.3,0.3-0.6,0.6-0.6s0.6,0.2,0.6,0.6v6.4c0,2,1.6,3.6,3.6,3.6c2,0,3.6-1.6,3.6-3.6v-6.4
					c0-0.3,0.3-0.6,0.6-0.6c0.3,0,0.6,0.2,0.6,0.6v6.4c0,2.6-2.1,4.8-4.8,4.8c-2.6,0-4.8-2.2-4.8-4.8V449.5z"/>
				<path class="st0" d="M233.4,458.3c0.2-0.2,0.6-0.3,0.8-0.1c0.8,0.6,2.1,1.4,3.6,1.4c0.9,0,1.7-0.3,2.2-0.7
					c0.6-0.4,0.9-0.9,0.9-1.4c0-0.6-0.2-0.9-0.8-1.4c-0.5-0.4-1.3-0.7-2.5-0.9l0,0c-1.1-0.2-2-0.4-2.7-0.9c-0.7-0.4-1.3-1.2-1.3-2.1
					c0-0.9,0.5-1.8,1.3-2.3c0.7-0.5,1.7-0.8,2.9-0.8c1.5,0,2.6,0.7,3.5,1.3c0.3,0.2,0.3,0.6,0.2,0.8c-0.2,0.3-0.5,0.3-0.8,0.2
					c-0.9-0.6-1.7-1.2-2.9-1.2c-1,0-1.7,0.3-2.2,0.7c-0.5,0.4-0.7,0.9-0.7,1.3c0,0.5,0.2,0.8,0.7,1.2c0.5,0.4,1.3,0.6,2.4,0.8h0
					c1.1,0.2,2,0.5,2.9,1c0.8,0.5,1.3,1.4,1.3,2.4c0,1-0.6,1.8-1.3,2.4c-0.8,0.6-1.8,0.9-2.9,0.9c-1.9,0-3.4-0.9-4.3-1.7
					C233.2,458.9,233.2,458.5,233.4,458.3z"/>
				<path class="st0" d="M253.3,458.3c0.2-0.2,0.6-0.3,0.8-0.1c0.8,0.6,2.1,1.4,3.6,1.4c0.9,0,1.7-0.3,2.2-0.7
					c0.6-0.4,0.9-0.9,0.9-1.4c0-0.6-0.2-0.9-0.8-1.4c-0.5-0.4-1.3-0.7-2.5-0.9l0,0c-1.1-0.2-2-0.4-2.7-0.9c-0.7-0.4-1.3-1.2-1.3-2.1
					c0-0.9,0.5-1.8,1.3-2.3c0.7-0.5,1.7-0.8,2.9-0.8c1.5,0,2.6,0.7,3.5,1.3c0.3,0.2,0.3,0.6,0.2,0.8c-0.2,0.3-0.5,0.3-0.8,0.2
					c-0.9-0.6-1.7-1.2-2.9-1.2c-1,0-1.7,0.3-2.2,0.7c-0.5,0.4-0.7,0.9-0.7,1.3c0,0.5,0.2,0.8,0.7,1.2c0.5,0.4,1.3,0.6,2.4,0.8h0
					c1.1,0.2,2,0.5,2.9,1c0.8,0.5,1.3,1.4,1.3,2.4c0,1-0.6,1.8-1.3,2.4c-0.8,0.6-1.8,0.9-2.9,0.9c-1.9,0-3.4-0.9-4.3-1.7
					C253.2,458.9,253.2,458.5,253.3,458.3z"/>
				<path class="st0" d="M266.5,445.7c0-0.3,0.3-0.6,0.6-0.6c0.3,0,0.6,0.3,0.6,0.6v0.6c0,0.3-0.3,0.6-0.6,0.6
					c-0.3,0-0.6-0.3-0.6-0.6V445.7z M266.5,449.6c0-0.3,0.3-0.6,0.6-0.6c0.3,0,0.6,0.2,0.6,0.6v10.6c0,0.3-0.3,0.6-0.6,0.6
					c-0.3,0-0.6-0.3-0.6-0.6V449.6z"/>
				<path class="st0" d="M277.8,449.6c0,0.3-0.3,0.6-0.6,0.6h-1.5v8.6c0,0.6,0.6,0.9,0.9,0.9s0.6,0.3,0.6,0.6s-0.3,0.6-0.6,0.6
					c-1.2,0-2.1-0.9-2.1-2v-8.6H273c-0.6,0-0.6-0.3-0.6-0.6s0-0.6,0.6-0.6h1.5v-4.4c0-0.3,0.3-0.6,0.6-0.6c0.3,0,0.6,0.3,0.6,0.6
					v4.4h1.5C277.5,449,277.8,449.3,277.8,449.6z"/>
				<path class="st0" d="M301.3,449.6v10.6c0,0.3-0.3,0.6-0.6,0.6s-0.6-0.3-0.6-0.6v-1.8c-1,1.4-2.6,2.3-4.4,2.3
					c-3.1,0-5.6-2.7-5.6-5.9s2.5-5.9,5.6-5.9c1.8,0,3.4,0.9,4.4,2.3v-1.7c0-0.3,0.3-0.6,0.6-0.6S301.3,449.2,301.3,449.6z
					 M300.1,454.9c0-2.6-2-4.8-4.4-4.8c-2.4,0-4.4,2.1-4.4,4.8s2,4.7,4.4,4.7C298.2,459.6,300.1,457.5,300.1,454.9z"/>
				<path class="st0" d="M323.6,453.8c0-2-1.6-3.6-3.6-3.6c-2,0-3.6,1.7-3.6,3.6v6.4v0.1c0,0,0,0,0,0v0c0,0.1-0.2,0.2-0.3,0.3
					c-0.1,0-0.2,0.1-0.3,0.1h-0.1h0c0,0,0,0,0,0c0,0-0.1,0-0.1-0.1c0,0,0,0-0.1,0l-0.1-0.1c0,0,0,0,0,0c0,0,0,0,0,0c0,0,0,0,0,0
					c0,0,0,0,0-0.1v-0.1v0v-6.4c0-2-1.6-3.6-3.6-3.6c-2,0-3.6,1.7-3.6,3.6v6.4c0,0.2-0.1,0.4-0.3,0.5c0,0-0.1,0.1-0.1,0.1
					c0,0,0,0-0.1,0h-0.1h-0.1c-0.2,0-0.4-0.2-0.5-0.4v-0.1v-6.4v-0.2v-4c0-0.3,0.3-0.6,0.6-0.6c0.3,0,0.6,0.2,0.6,0.6v1.1
					c0.9-1,2.2-1.7,3.6-1.7c1.8,0,3.4,1,4.2,2.5c0.8-1.5,2.4-2.5,4.2-2.5c2.6,0,4.8,2.1,4.8,4.8v6.4c0,0.3-0.2,0.6-0.6,0.6
					c-0.3,0-0.6-0.3-0.6-0.6V453.8z"/>
				<path class="st0" d="M329.2,454.9c0-3.3,2.5-5.9,5.7-5.9c3,0,5.4,2.4,5.7,5.5v0v0.1c0,0.3-0.3,0.5-0.6,0.5h-9.6
					c0.1,2.6,2.1,4.5,4.6,4.5c1.6,0,3-0.8,3.8-2.1c0.2-0.3,0.5-0.3,0.8-0.2c0.3,0.2,0.4,0.5,0.2,0.8c-1,1.6-2.8,2.7-4.8,2.7
					C331.8,460.7,329.2,458.1,329.2,454.9z M330.5,454h8.9c-0.4-2.2-2.3-3.8-4.4-3.8C332.7,450.1,330.9,451.7,330.5,454z"/>
				<path class="st0" d="M348.3,449.6c0,0.3-0.3,0.6-0.6,0.6h-1.5v8.6c0,0.6,0.6,0.9,0.9,0.9s0.6,0.3,0.6,0.6s-0.3,0.6-0.6,0.6
					c-1.2,0-2.1-0.9-2.1-2v-8.6h-1.5c-0.6,0-0.6-0.3-0.6-0.6s0-0.6,0.6-0.6h1.5v-4.4c0-0.3,0.3-0.6,0.6-0.6c0.3,0,0.6,0.3,0.6,0.6
					v4.4h1.5C348,449,348.3,449.3,348.3,449.6z"/>
				<path class="st0" d="M370.4,453.8c0-2-1.6-3.6-3.6-3.6c-2,0-3.6,1.6-3.6,3.6v6.4v0.1c0,0.1,0,0.2-0.1,0.3
					c-0.1,0.1-0.3,0.2-0.4,0.2h-0.1c-0.2,0-0.3-0.2-0.4-0.3c0,0,0,0,0-0.1c0,0,0,0,0,0v-0.1v-6.4v-0.2v-4c0-0.3,0.2-0.6,0.6-0.6
					c0.3,0,0.6,0.3,0.6,0.6v1.1c0.9-1,2.2-1.7,3.6-1.7c2.6,0,4.8,2.2,4.8,4.8v6.4c0,0.3-0.3,0.6-0.6,0.6s-0.6-0.2-0.6-0.6V453.8z"/>
				<path class="st0" d="M376.9,449.5c0-0.3,0.3-0.6,0.6-0.6s0.6,0.2,0.6,0.6v6.4c0,2,1.6,3.6,3.6,3.6c2,0,3.6-1.6,3.6-3.6v-6.4
					c0-0.3,0.3-0.6,0.6-0.6c0.3,0,0.6,0.2,0.6,0.6v6.4c0,2.6-2.1,4.8-4.8,4.8c-2.6,0-4.8-2.2-4.8-4.8V449.5z"/>
				<path class="st0" d="M400.2,453.8c0-2-1.6-3.6-3.6-3.6c-2,0-3.6,1.6-3.6,3.6v6.4v0.1c0,0.1,0,0.2-0.1,0.3
					c-0.1,0.1-0.3,0.2-0.4,0.2h-0.1c-0.2,0-0.3-0.2-0.4-0.3c0,0,0,0,0-0.1c0,0,0,0,0,0v-0.1v-6.4v-0.2v-4c0-0.3,0.2-0.6,0.6-0.6
					c0.3,0,0.6,0.3,0.6,0.6v1.1c0.9-1,2.2-1.7,3.6-1.7c2.6,0,4.8,2.2,4.8,4.8v6.4c0,0.3-0.3,0.6-0.6,0.6s-0.6-0.2-0.6-0.6V453.8z"/>
				<path class="st0" d="M406.1,454.8c0-3.3,2.7-5.9,6-5.9c1.4,0,2.7,0.5,3.7,1.3c0.2,0.2,0.3,0.5,0.1,0.8c-0.2,0.2-0.5,0.3-0.8,0.1
					c-0.8-0.7-1.9-1.1-3-1.1c-2.7,0-4.9,2.1-4.9,4.7c0,2.6,2.2,4.8,4.9,4.8c1.1,0,2.2-0.4,3-1c0.3-0.2,0.6-0.1,0.8,0.1
					c0.2,0.3,0.2,0.6-0.1,0.8c-1,0.8-2.3,1.2-3.7,1.2C408.8,460.7,406.1,458.2,406.1,454.8z"/>
				<path class="st0" d="M437.2,453.8c0-2-1.6-3.6-3.6-3.6c-2,0-3.6,1.6-3.6,3.6v6.4v0.1c0,0.1,0,0.2-0.1,0.3
					c-0.1,0.1-0.3,0.2-0.4,0.2h-0.1c-0.2,0-0.3-0.2-0.4-0.3c0,0,0,0,0-0.1c0,0,0,0,0,0v-0.1v-6.4v-0.2v-4c0-0.3,0.2-0.6,0.6-0.6
					c0.3,0,0.6,0.3,0.6,0.6v1.1c0.9-1,2.2-1.7,3.6-1.7c2.6,0,4.8,2.2,4.8,4.8v6.4c0,0.3-0.3,0.6-0.6,0.6s-0.6-0.2-0.6-0.6V453.8z"/>
				<path class="st0" d="M449,449c3.1,0,5.6,2.7,5.6,5.9c0,3.2-2.5,5.9-5.6,5.9c-3.1,0-5.6-2.7-5.6-5.9C443.5,451.7,446,449,449,449
					z M449,459.6c2.4,0,4.4-2.1,4.4-4.7s-2-4.8-4.4-4.8c-2.4,0-4.4,2.1-4.4,4.8S446.6,459.6,449,459.6z"/>
				<path class="st0" d="M467.9,453.8c0-2-1.6-3.6-3.6-3.6c-2,0-3.6,1.6-3.6,3.6v6.4v0.1c0,0.1,0,0.2-0.1,0.3
					c-0.1,0.1-0.3,0.2-0.4,0.2h-0.1c-0.2,0-0.3-0.2-0.4-0.3c0,0,0,0,0-0.1c0,0,0,0,0,0v-0.1v-6.4v-0.2v-4c0-0.3,0.2-0.6,0.6-0.6
					c0.3,0,0.6,0.3,0.6,0.6v1.1c0.9-1,2.2-1.7,3.6-1.7c2.6,0,4.8,2.2,4.8,4.8v6.4c0,0.3-0.3,0.6-0.6,0.6s-0.6-0.2-0.6-0.6V453.8z"/>
				<path class="st0" d="M475.6,458.3c0.7,0,1.2,0.5,1.2,1.2c0,0.7-0.5,1.2-1.2,1.2c-0.7,0-1.2-0.5-1.2-1.2
					C474.4,458.9,475,458.3,475.6,458.3z"/>
			</g>
		</g>
	</g>
	<g id="Tac1vY.tif">
		<g>
			
				<image style="overflow:visible;" width="505" height="147" id="Layer_0_13_" xlink:href="3D58FCC6E25C543F.png"  transform="matrix(0.329 0 0 0.329 234.4952 629.0898)">
			</image>
		</g>
	</g>
	<g>
		<g>
			<defs>
				<path id="SVGID_1_" d="M193.2,628.1H63.7c-5.5,0-10,4.5-10,10v29.9c0,5.5,4.5,10,10,10h129.5c5.5,0,10-4.5,10-10v-29.9
					C203.2,632.6,198.7,628.1,193.2,628.1z"/>
			</defs>
			<clipPath id="SVGID_2_">
				<use xlink:href="#SVGID_1_"  style="overflow:visible;"/>
			</clipPath>
			<g id="YkKmIS.tif_5_" class="st1">
				
					<image style="overflow:visible;" width="4706" height="1633" id="Layer_0_12_" xlink:href="3D58FCC6E25C543A.png"  transform="matrix(3.223088e-02 0 0 3.223088e-02 52.6002 626.6969)">
				</image>
			</g>
		</g>
	</g>
	<g>
		
			<image style="overflow:visible;opacity:0.15;" width="400" height="97" xlink:href="3D58FCC6E25C543B.png"  transform="matrix(1 0 0 1 45 504)">
		</image>
		<g>
			<path class="st2" d="M391.5,580.4H88c-18.1,0-32.7-14.7-32.7-32.7v0c0-18.1,14.7-32.7,32.7-32.7h303.5
				c18.1,0,32.7,14.7,32.7,32.7v0C424.3,565.7,409.6,580.4,391.5,580.4z"/>
		</g>
	</g>
	<rect x="99.3" y="534.8" class="st3" width="288" height="55.5"/>
	<text transform="matrix(1 0 0 1 133.7133 556.4142)"><tspan x="0" y="0" class="st0 st4 st5 st6">สมัคร</tspan><tspan x="70" y="0" class="st0 st4 st7 st6"> KIDEEPASS</tspan></text>
	<g>
		
			<image style="overflow:visible;opacity:2.000000e-02;" width="513" height="141" xlink:href="3D58FCC6E25C5445.png"  transform="matrix(1 0 0 1 42 229)">
		</image>
		<g>
			<g>
				<path class="st0" d="M76.6,275.3H66.3v18.1c0,2.5-2.1,4.6-4.7,4.6c-2.5,0-4.6-2.1-4.6-4.6v-49.3c0-2.6,2.1-4.6,4.6-4.6h0.1h14.9
					c9.9,0,18,8,18,18C94.6,267.2,86.5,275.3,76.6,275.3z M66.3,266h10.3c4.8,0,8.6-3.8,8.7-8.5c-0.1-4.8-3.8-8.7-8.7-8.7H66.3V266z
					"/>
				<path class="st0" d="M138.1,284.2h-20.3l-4.1,10.9c-0.8,1.8-2.5,2.9-4.3,2.9c-0.6,0-1.1-0.1-1.6-0.3c-2.4-0.9-3.6-3.6-2.8-6
					l18.5-49.2c0.8-1.8,2.6-3,4.4-2.9c1.9-0.1,3.7,1.1,4.4,2.9l18.5,49.2c0.8,2.4-0.3,5.1-2.8,6c-0.4,0.2-1,0.3-1.6,0.3
					c-1.8,0-3.6-1.1-4.3-2.9L138.1,284.2z M134.7,275l-6.8-18l-6.8,18H134.7z"/>
				<path class="st0" d="M167.4,283.5c1.5-1.8,4.3-2.1,6.1-0.6c3.7,3,10,6.5,16,6.4c4.2,0,7.9-1.3,10.4-3.1c2.5-1.8,3.6-3.9,3.6-6
					c0-1.1-0.3-1.8-0.8-2.7c-0.5-0.8-1.3-1.7-2.5-2.5c-2.4-1.6-6.5-3-11.4-3.9h-0.2c-3.9-0.8-7.6-1.8-10.8-3.3
					c-3.2-1.5-5.9-3.6-7.8-6.5c-1.3-2-1.9-4.3-1.9-6.9c0-5,2.8-9.4,6.7-12.2c3.9-2.8,9-4.4,14.5-4.4c8,0,14,3.9,18.2,6.7
					c1.9,1.3,2.5,4,1.2,5.9c-1.3,2-3.9,2.6-5.9,1.3c-4.3-2.8-8.4-5.3-13.5-5.3c-3.8,0-7.1,1.2-9.4,2.8c-2.3,1.7-3.2,3.5-3.2,5.3
					c0,1,0.2,1.7,0.6,2.3c0.4,0.7,1.2,1.4,2.3,2.2c2.2,1.5,5.9,2.8,10.4,3.7h0.2c4.3,0.8,8.2,1.9,11.5,3.5c3.4,1.7,6.4,3.8,8.4,6.9
					c1.3,2,2,4.5,2,7.1c0,5.3-3,9.9-7.2,13c-4.1,3-9.5,4.8-15.5,4.8c-9-0.1-16.6-4.6-21.4-8.4C166.2,288,165.9,285.3,167.4,283.5z"
					/>
				<path class="st0" d="M230.6,283.5c1.5-1.8,4.3-2.1,6.1-0.6c3.7,3,10,6.5,16,6.4c4.2,0,7.9-1.3,10.4-3.1c2.5-1.8,3.6-3.9,3.6-6
					c0-1.1-0.3-1.8-0.8-2.7c-0.5-0.8-1.3-1.7-2.5-2.5c-2.4-1.6-6.5-3-11.4-3.9h-0.2c-3.9-0.8-7.6-1.8-10.8-3.3
					c-3.2-1.5-5.9-3.6-7.8-6.5c-1.3-2-1.9-4.3-1.9-6.9c0-5,2.8-9.4,6.7-12.2c3.9-2.8,9-4.4,14.5-4.4c8,0,14,3.9,18.2,6.7
					c1.9,1.3,2.5,4,1.2,5.9c-1.3,2-3.9,2.6-5.9,1.3c-4.3-2.8-8.4-5.3-13.5-5.3c-3.8,0-7.1,1.2-9.4,2.8c-2.3,1.7-3.2,3.5-3.2,5.3
					c0,1,0.2,1.7,0.6,2.3c0.4,0.7,1.2,1.4,2.3,2.2c2.2,1.5,5.9,2.8,10.4,3.7h0.2c4.3,0.8,8.2,1.9,11.5,3.5c3.4,1.7,6.4,3.8,8.4,6.9
					c1.3,2,2,4.5,2,7.1c0,5.3-3,9.9-7.2,13c-4.1,3-9.5,4.8-15.5,4.8c-9-0.1-16.6-4.6-21.4-8.4C229.5,288,229.2,285.3,230.6,283.5z"
					/>
				<path class="st0" d="M316.1,275.3h-10.3v18.1c0,2.5-2.1,4.6-4.7,4.6c-2.5,0-4.6-2.1-4.6-4.6v-49.3c0-2.6,2.1-4.6,4.6-4.6h0.1
					h14.9c9.9,0,18,8,18,18C334.1,267.2,326.1,275.3,316.1,275.3z M305.8,266h10.3c4.8,0,8.6-3.8,8.7-8.5c-0.1-4.8-3.8-8.7-8.7-8.7
					h-10.3V266z"/>
				<path class="st0" d="M399.8,246.8c5.2,5.5,8.4,12.9,8.4,21.1c0,8.3-3.3,15.7-8.4,21.1c-4.9,5.4-12.3,8.9-20,8.9
					c-8,0-15.4-3.5-20.5-8.9c-5.2-5.4-8.3-12.9-8.3-21.1c0-8.3,3.1-15.6,8.3-21.1c5.1-5.5,12.5-8.9,20.5-8.9
					C387.5,237.8,394.8,241.3,399.8,246.8z M398.7,267.9c0-5.7-2.3-10.9-5.7-14.6c-3.5-3.8-8.2-5.9-13.2-5.9c-5.3,0-10,2.2-13.5,5.9
					c-3.5,3.7-5.7,8.9-5.7,14.6c0,5.7,2.2,10.9,5.7,14.5c3.5,3.8,8.2,6,13.5,6c5,0,9.7-2.3,13.2-6
					C396.4,278.9,398.7,273.6,398.7,267.9z"/>
				<path class="st0" d="M471.7,291.1c0.8,2.4-0.5,5-2.9,5.8c-0.3,0.1-1,0.3-1.8,0.3c0,0,0,0-0.1,0c-0.8,0-2.1-0.2-3.3-0.9
					c-1.1-0.7-2-1.8-2.7-2.9c-1.2-2.4-1.8-5.4-1.8-10c-0.1-1.6-0.4-2.7-1-3.6c-0.5-0.9-1.5-1.8-2.5-2.4c-1.8-1.2-3.9-1.8-4.7-2h-9.9
					v18.1c0,2.5-2.1,4.6-4.7,4.6c-2.6,0-4.6-2.1-4.6-4.6v-49.3c0-2.6,2-4.6,4.6-4.6c0,0,0,0,0.1,0h14.9c9.9,0,17.9,8,17.9,18
					c0,5.5-2.5,10.4-6.5,13.7c1.1,0.8,2.1,1.8,2.9,3.1c1.7,2.4,2.8,5.5,2.8,9c-0.1,2.5,0.2,4.1,0.3,4.9
					C470.1,288.6,471.2,289.6,471.7,291.1z M460,257.5c0-4.8-3.8-8.7-8.6-8.7h-10.3V266h10.3C456.2,266,460,262.1,460,257.5z"/>
				<path class="st0" d="M527.7,248.8h-13.3v44.6c0,2.6-2,4.6-4.6,4.6c-2.5,0-4.6-2-4.6-4.6v-44.6H492c-2.6,0-4.6-2.2-4.6-4.7
					c0-2.6,2-4.6,4.6-4.6h35.7c2.5,0,4.6,2,4.6,4.6C532.3,246.6,530.2,248.8,527.7,248.8z"/>
				<path class="st0" d="M70.2,323.1h-6.5V345c0,1.3-1,2.3-2.3,2.3c-1.2,0-2.3-1-2.3-2.3v-21.9h-6.5c-1.3,0-2.3-1.1-2.3-2.3
					c0-1.3,1-2.3,2.3-2.3h17.5c1.2,0,2.3,1,2.3,2.3C72.4,322,71.4,323.1,70.2,323.1z"/>
				<path class="st0" d="M103.7,322.1c2.5,2.7,4.1,6.3,4.1,10.4c0,4.1-1.6,7.7-4.1,10.4c-2.4,2.7-6,4.4-9.8,4.4
					c-3.9,0-7.5-1.7-10-4.4c-2.5-2.7-4.1-6.3-4.1-10.4c0-4.1,1.5-7.7,4.1-10.4c2.5-2.7,6.1-4.4,10-4.4
					C97.7,317.7,101.3,319.4,103.7,322.1z M103.2,332.5c0-2.8-1.1-5.4-2.8-7.2c-1.7-1.8-4-2.9-6.5-2.9c-2.6,0-4.9,1.1-6.6,2.9
					c-1.7,1.8-2.8,4.4-2.8,7.2c0,2.8,1.1,5.4,2.8,7.1c1.7,1.8,4,3,6.6,3c2.5,0,4.8-1.1,6.5-3C102.1,337.8,103.2,335.2,103.2,332.5z"
					/>
				<path class="st0" d="M167.5,340.5h-10l-2,5.3c-0.4,0.9-1.2,1.4-2.1,1.4c-0.3,0-0.5,0-0.8-0.1c-1.2-0.5-1.8-1.8-1.4-3l9.1-24.2
					c0.4-0.9,1.3-1.5,2.2-1.4c0.9,0,1.8,0.5,2.2,1.4l9.1,24.2c0.4,1.2-0.2,2.5-1.4,3c-0.2,0.1-0.5,0.1-0.8,0.1
					c-0.9,0-1.8-0.5-2.1-1.4L167.5,340.5z M165.8,335.9l-3.3-8.8l-3.3,8.8H165.8z"/>
				<path class="st0" d="M183.5,345v-24.2c0-1.2,1-2.3,2.3-2.3c1.3,0,2.3,1,2.3,2.3v21.9h11.1c1.2,0,2.3,1,2.3,2.3
					c0,1.2-1.1,2.3-2.3,2.3h-13.3c-0.1,0-0.1,0-0.1,0c0,0,0,0,0,0C184.4,347.2,183.5,346.2,183.5,345z"/>
				<path class="st0" d="M210.7,345v-24.2c0-1.2,1-2.3,2.3-2.3c1.3,0,2.3,1,2.3,2.3v21.9h11.1c1.2,0,2.3,1,2.3,2.3
					c0,1.2-1.1,2.3-2.3,2.3H213c-0.1,0-0.1,0-0.1,0c0,0,0,0,0,0C211.6,347.2,210.7,346.2,210.7,345z"/>
				<path class="st0" d="M271.8,323.1h-6.5V345c0,1.3-1,2.3-2.3,2.3c-1.2,0-2.3-1-2.3-2.3v-21.9h-6.5c-1.3,0-2.3-1.1-2.3-2.3
					c0-1.3,1-2.3,2.3-2.3h17.5c1.2,0,2.3,1,2.3,2.3C274.1,322,273,323.1,271.8,323.1z"/>
				<path class="st0" d="M285,345v-24.2c0-1.3,1-2.3,2.3-2.3c1.3,0,2.3,1,2.3,2.3v9.8h10.6v-9.8c0-1.3,1-2.3,2.3-2.3
					c1.3,0,2.3,1,2.3,2.3V345c0,1.3-1,2.3-2.3,2.3c-1.3,0-2.3-1-2.3-2.3v-9.8h-10.6v9.8c0,1.3-1,2.3-2.3,2.3
					C285.9,347.2,285,346.2,285,345z"/>
				<path class="st0" d="M318.1,345v-24.2c0-1.3,1-2.3,2.3-2.3h0c0,0,0,0,0.1,0h13.3c1.2,0,2.3,1,2.3,2.3s-1.1,2.3-2.3,2.3h-11.1
					v7.5h9.6c1.2,0,2.3,1.1,2.3,2.3c0,1.3-1,2.3-2.3,2.3h-9.6v7.5h11.1c1.2,0,2.3,1,2.3,2.3c0,1.2-1.1,2.3-2.3,2.3h-13.3
					c-0.1,0-0.1,0-0.1,0l0,0C319.1,347.2,318.1,346.2,318.1,345z"/>
				<path class="st0" d="M363,345v-24.2c0-1.2,1-2.3,2.3-2.3h0c0,0,0,0,0.1,0h13.3c1.2,0,2.3,1,2.3,2.3c0,1.3-1.1,2.3-2.3,2.3h-11.1
					v7.5h9.6c1.2,0,2.3,1.1,2.3,2.3c0,1.3-1,2.3-2.3,2.3h-9.6v9.8c0,1.2-1,2.3-2.3,2.3C364,347.2,363,346.2,363,345z"/>
				<path class="st0" d="M403.8,347.2c-6.6,0-11.9-5.3-11.9-11.9v-14.6c0-1.3,1-2.3,2.3-2.3c1.2,0,2.3,1,2.3,2.3v14.6
					c0,4,3.3,7.3,7.3,7.3c4.1,0,7.3-3.3,7.3-7.3v-14.6c0-1.3,1-2.3,2.3-2.3c1.3,0,2.3,1,2.3,2.3v14.6
					C415.7,341.9,410.4,347.2,403.8,347.2z"/>
				<path class="st0" d="M433.3,345c0,1.2-1,2.3-2.2,2.3c-1.3,0-2.3-1-2.3-2.3v-23.8c0,0,0,0,0,0c0-0.7,0.3-1.4,0.9-1.9
					c1-0.7,2.4-0.5,3.1,0.5l13.2,18.3v-16.9c0-1.2,1-2.2,2.2-2.2c1.2,0,2.3,1,2.3,2.2V345c0,1.2-1,2.3-2.3,2.3
					c-0.7,0-1.3-0.3-1.7-0.8c-0.1-0.1-0.2-0.2-0.2-0.2l-13.1-18.2V345z"/>
			</g>
		</g>
	</g>
</g>
<g id="Layer_8">
</g>
<g id="Layer_7">
</g>
<g id="Layer_4">
</g>
<g id="Layer_5">
</g>
<g id="Layer_6">
</g>
<g id="Layer_9">
</g>
<g id="a2">
</g>
<g id="a1">
</g>
</svg>
